<svg id="Layer_1" data-name="Layer 1" xmlns="http://www.w3.org/2000/svg" viewBox="0 0 86.87 84.97"><defs><style>.cls-1{fill:#fff;}</style></defs><path class="cls-1" d="M48.73,28.87c.13.35-.22.66-.44.95a1.52,1.52,0,0,1-1.66.3c-.42-.55.48-.37.64-.78.33-.37.94-1.52,1.46-.47"/><path class="cls-1" d="M16,70.12l-.53,1.45L17,71l-1-.84m.09-.23,1.1,1,.42-.18a1.21,1.21,0,0,0,.31-.18.27.27,0,0,0,.07-.29,1.44,1.44,0,0,0-.25-.32l.07-.08,1,.92-.07.08a.69.69,0,0,0-.41-.11,2.63,2.63,0,0,0-.72.22l-3.46,1.39,0,0,1.27-3.46a1.82,1.82,0,0,0,.16-.68.4.4,0,0,0-.14-.28l.08-.08,1.52,1.35-.08.08-.06-.06a.93.93,0,0,0-.3-.18l-.15.06-.07.1a1.61,1.61,0,0,0-.1.23Z"/><path class="cls-1" d="M8.94,66.91,10.09,66l.08.08a1.46,1.46,0,0,0-.35.93,1.15,1.15,0,0,0,.31.82,1.26,1.26,0,0,0,.65.4,1.48,1.48,0,0,0,.78,0,2.94,2.94,0,0,0,.95-.51,3.29,3.29,0,0,0,.7-.76,1.21,1.21,0,0,0,.26-.77,1.11,1.11,0,0,0-.32-.73,1.62,1.62,0,0,0-.62-.43,2.42,2.42,0,0,0-.92-.15l.28-.22a2.18,2.18,0,0,1,.91.21,2.28,2.28,0,0,1,.71.56,2.31,2.31,0,0,1,.57,1.06A1.77,1.77,0,0,1,14,67.57a2.14,2.14,0,0,1-.66.88,2.24,2.24,0,0,1-1.11.48A2.17,2.17,0,0,1,11,68.82a2.28,2.28,0,0,1-1-.65,2.35,2.35,0,0,1-.47-.82A1.41,1.41,0,0,0,9.44,67l-.17-.08L9,67l-.09-.08"/><path class="cls-1" d="M9.12,62.15l-.91,1.26L9.8,63.2l-.68-1.05M9.26,62l.8,1.21.46-.06a.91.91,0,0,0,.34-.11.27.27,0,0,0,.15-.25,1,1,0,0,0-.16-.38l.1-.06.75,1.16-.09.05a.71.71,0,0,0-.37-.2,2.53,2.53,0,0,0-.75,0l-3.73.49,0-.05,2.17-3a1.84,1.84,0,0,0,.35-.61.48.48,0,0,0-.07-.32l.1,0,1.11,1.68-.1,0,0-.06a.68.68,0,0,0-.24-.26l-.16,0-.09.07-.16.2Z"/><path class="cls-1" d="M4.57,59.4l3-1.34a1.6,1.6,0,0,0,.29-.16L8,57.78a.65.65,0,0,0-.07-.23A.94.94,0,0,0,7.22,57a2.42,2.42,0,0,0-1.53.28A2.8,2.8,0,0,0,4.58,58a1.06,1.06,0,0,0-.24.66,1.92,1.92,0,0,0,.23.7M9,59.18l-.1,0,0-.12a.76.76,0,0,0-.18-.23l-.21,0A1.44,1.44,0,0,0,8,59L5.45,60.09a1.61,1.61,0,0,0-.35.2L5,60.47a.45.45,0,0,0,.06.28l.06.12-.1,0-.81-1.66a2.86,2.86,0,0,1-.34-1.16A1.7,1.7,0,0,1,4.24,57a2.27,2.27,0,0,1,.93-.73A2.6,2.6,0,0,1,6,56.09a1.87,1.87,0,0,1,.73.07,1.73,1.73,0,0,1,.59.3,2.45,2.45,0,0,1,.52.54,2.38,2.38,0,0,1,.3.52Z"/><path class="cls-1" d="M2.41,54.19,4.1,53.7l0-.07a.65.65,0,0,0-.42-.48,2,2,0,0,0-.78,0l0-.11L5,52.41l0,.12a1.54,1.54,0,0,0-.53.31.62.62,0,0,0-.22.35,1,1,0,0,0,.06.45l1.16-.33a1.88,1.88,0,0,0,.4-.16L6,53a.55.55,0,0,0,0-.26l-.07-.24a1.45,1.45,0,0,0-.55-.8,1.56,1.56,0,0,0-1-.24l0-.11,1.36-.2,1.08,3.38-.1,0,0-.13a.64.64,0,0,0-.15-.26l-.19-.07a1.31,1.31,0,0,0-.39.08L3.18,55a1.17,1.17,0,0,0-.34.11l-.13.15a.59.59,0,0,0,0,.32l0,.14-.11,0-1-3.28,1.22-.36,0,.11a1.63,1.63,0,0,0-.58.42,1.09,1.09,0,0,0-.15.52,2.51,2.51,0,0,0,.14.61l.13.41"/><path class="cls-1" d="M3.46,47.45l-3-.73L.24,45.08H.35l0,.13a.39.39,0,0,0,.11.27l.16.1a1.23,1.23,0,0,0,.41,0l2.81-.37a2,2,0,0,0,.41-.1l.12-.15a.5.5,0,0,0,0-.28l0-.13h.11l.3,2.11H4.72l0-.13a.48.48,0,0,0-.1-.27l-.18-.1a1,1,0,0,0-.4,0l-3.15.42,4.1,1,0,.07-3.62,2.1,3-.4a2.84,2.84,0,0,0,.4-.07l.23-.2a.72.72,0,0,0,0-.43h.11l.21,1.39-.11,0v0a.61.61,0,0,0-.07-.25L5,49.63a.55.55,0,0,0-.26-.06l-.32,0L1.72,50a1,1,0,0,0-.41.1l-.14.14a.66.66,0,0,0,0,.29l0,.13H1.06L.83,49l2.63-1.53"/><path class="cls-1" d="M4.38,41.61h.11l0,2.13H4.42V43.6a.42.42,0,0,0-.07-.28l-.15-.11a1,1,0,0,0-.4,0l-2.85,0a1.49,1.49,0,0,0-.4,0l-.15.14a.55.55,0,0,0-.06.28v.13H.22l0-2.13H.3v.14a.52.52,0,0,0,.08.29l.15.11a1,1,0,0,0,.4,0l2.83-.05a1.63,1.63,0,0,0,.42,0L4.33,42a.49.49,0,0,0,0-.28v-.13"/><path class="cls-1" d="M3.21,38.36l-1.52.49,1.4.75.12-1.24m.24-.07-.13,1.43.4.21a.78.78,0,0,0,.34.11.28.28,0,0,0,.28-.11,1.27,1.27,0,0,0,.12-.4l.11,0L4.44,40.9H4.33a.64.64,0,0,0-.15-.38,3.32,3.32,0,0,0-.63-.4L.27,38.36v0l3.65-1.18a2,2,0,0,0,.67-.3.44.44,0,0,0,.14-.27h.11l-.18,2H4.55v-.08a.64.64,0,0,0,0-.34L4.37,38H4.26L4,38.11Z"/><path class="cls-1" d="M2.49,28.32l1.36.39,0,.12a1.57,1.57,0,0,0-1,.15,1.12,1.12,0,0,0-.54.62.64.64,0,0,0,0,.51.51.51,0,0,0,.32.29h.26a1.35,1.35,0,0,0,.38-.17c.09-.07.28-.25.56-.52a2.93,2.93,0,0,1,1-.72,1.25,1.25,0,0,1,1.56.64,1.39,1.39,0,0,1,0,1.08,2.11,2.11,0,0,1-.16.34,4.43,4.43,0,0,1-.29.37l-.14.21v.17L6,32l0,.1-1.54-.48,0-.1a1.84,1.84,0,0,0,1.16-.17,1.37,1.37,0,0,0,.62-.67.78.78,0,0,0,0-.57.6.6,0,0,0-.36-.34.74.74,0,0,0-.3,0,.85.85,0,0,0-.34.15,4.05,4.05,0,0,0-.5.43A4.29,4.29,0,0,1,4,31a1.44,1.44,0,0,1-.55.23,1.1,1.1,0,0,1-.57,0,1.12,1.12,0,0,1-.72-.6,1.2,1.2,0,0,1,0-1,1.62,1.62,0,0,1,.17-.35c.06-.08.14-.18.24-.29a.8.8,0,0,0,.2-.24v-.13a.71.71,0,0,0-.21-.16l0-.08"/><path class="cls-1" d="M4.81,23.08l1.36.59,0,.11a1.62,1.62,0,0,0-1,.09,1.23,1.23,0,0,0-.65.62,1.11,1.11,0,0,0-.1.72,1.23,1.23,0,0,0,.34.67,2.71,2.71,0,0,0,.88.61,4.46,4.46,0,0,0,1,.3,1.5,1.5,0,0,0,.84-.11,1.22,1.22,0,0,0,.56-.6,1.51,1.51,0,0,0,.17-.71,2.53,2.53,0,0,0-.27-.86l.34.15a1.91,1.91,0,0,1-.05,1.72,2.3,2.3,0,0,1-.78.95,1.83,1.83,0,0,1-1.06.39,2.3,2.3,0,0,1-2-.94,2.12,2.12,0,0,1-.41-1.1,2.18,2.18,0,0,1,.21-1.12,2.46,2.46,0,0,1,.58-.74.92.92,0,0,0,.26-.29v-.17l-.17-.18,0-.1"/><path class="cls-1" d="M10.36,22.11l.1.06L9.3,24l-.1,0,.08-.11a.6.6,0,0,0,.09-.28l-.06-.18A1.73,1.73,0,0,0,9,23.14L6.55,21.75a1,1,0,0,0-.38-.17l-.19,0a.54.54,0,0,0-.2.2l-.08.12-.09-.06,1.15-1.83.1.05-.07.13a.45.45,0,0,0-.11.27l.07.18a1.29,1.29,0,0,0,.34.23L9.52,22.3a1.11,1.11,0,0,0,.37.17l.2,0a.54.54,0,0,0,.2-.2l.07-.12"/><path class="cls-1" d="M8.52,18l1.41,1,.05-.06a.6.6,0,0,0,.15-.6,1.53,1.53,0,0,0-.48-.61l.07-.1,1.83,1.27-.06.09a1.76,1.76,0,0,0-.59-.21.66.66,0,0,0-.43,0,1.3,1.3,0,0,0-.34.31l1,.68a1.24,1.24,0,0,0,.38.22h.16a.47.47,0,0,0,.2-.18l.15-.2a1.47,1.47,0,0,0,.35-.9,1.4,1.4,0,0,0-.38-.87l.07-.09,1,.92-2.18,2.86-.09-.07.09-.11a.74.74,0,0,0,.13-.27l-.06-.18a1.3,1.3,0,0,0-.3-.25L8.31,19A2.1,2.1,0,0,0,8,18.85H7.8a.46.46,0,0,0-.27.2l-.09.11-.08-.07,2.11-2.77,1,.71-.08.1A1.56,1.56,0,0,0,9.74,17a.92.92,0,0,0-.52.2,2.17,2.17,0,0,0-.44.48L8.52,18"/><path class="cls-1" d="M11.69,13.87l3.39.32L13.75,13a.93.93,0,0,0-.45-.27.66.66,0,0,0-.49.23l-.08-.07,1-1,.08.07a.87.87,0,0,0-.19.31l0,.22a1.09,1.09,0,0,0,.27.32l2.58,2.37-.07.08-4.59-.39,2,1.82a.55.55,0,0,0,.85,0l.07-.07.09.07-1.08,1.05-.08-.07a.59.59,0,0,0,.24-.43.68.68,0,0,0-.25-.43l-2.19-2H11.3a.62.62,0,0,0-.59.17l-.08-.07,1.06-1.05"/><path class="cls-1" d="M17.82,8.62l.73.86-.08.07a1.89,1.89,0,0,0-.54-.3,1.09,1.09,0,0,0-.44,0,1.36,1.36,0,0,0-.37.21l-.25.2L19,12.12a1.4,1.4,0,0,0,.3.29l.2,0a.47.47,0,0,0,.25-.13l.11-.08.07.08-1.73,1.34-.07-.08.11-.08a.64.64,0,0,0,.19-.23v-.19a1.37,1.37,0,0,0-.22-.32l-2.1-2.47-.24.2a.81.81,0,0,0-.37.51,1,1,0,0,0,.19.74l-.1.08-.73-.86,3-2.32"/><path class="cls-1" d="M23.1,10.11l.07.08-1.88,1.17-.06-.09.12-.07a.59.59,0,0,0,.21-.21l0-.19a1.23,1.23,0,0,0-.2-.34L19.84,8.19a1.43,1.43,0,0,0-.24-.32l-.2,0a.56.56,0,0,0-.28.1L19,8,19,7.92l1.87-1.16.06.08-.12.07a.55.55,0,0,0-.2.21l0,.2a1.1,1.1,0,0,0,.19.34l1.54,2.26a2.17,2.17,0,0,0,.25.32l.21,0a.6.6,0,0,0,.27-.1l.11-.07"/><path class="cls-1" d="M25.43,7.44l-1.22-1L24.26,8l1.17-.55m.2.16-1.36.63,0,.44a.7.7,0,0,0,.07.33.28.28,0,0,0,.24.18A1.54,1.54,0,0,0,25,9.06l.05.1-1.29.6,0-.1A.64.64,0,0,0,24,9.34a2.33,2.33,0,0,0,0-.72l-.12-3.57L24,5,26.9,7.38a1.91,1.91,0,0,0,.62.4.46.46,0,0,0,.32,0l.05.1L26,8.72,26,8.62l.08,0a.67.67,0,0,0,.28-.21V8.22l-.07-.09a1.14,1.14,0,0,0-.2-.17Z"/><path class="cls-1" d="M28.76,3.38l.61,1.69L29.54,5a1.87,1.87,0,0,0,.6-.28.58.58,0,0,0,.23-.37.93.93,0,0,0-.06-.53.91.91,0,0,0-.46-.58,1.08,1.08,0,0,0-.77,0l-.32.11m.69,1.89.39,1.1a1.49,1.49,0,0,0,.18.38l.19.08a1.27,1.27,0,0,0,.4-.07l0,.09-2.09.69,0-.11a.85.85,0,0,0,.36-.17L29,7.08a1,1,0,0,0-.09-.41L28,4.14a1.49,1.49,0,0,0-.18-.38l-.19-.08a1.13,1.13,0,0,0-.4.08l0-.1L29.06,3a4.17,4.17,0,0,1,1.11-.26,1.18,1.18,0,0,1,.69.17,1.06,1.06,0,0,1,.44.54.94.94,0,0,1-.07.82,1.37,1.37,0,0,1-.49.46l1.46,1a1.91,1.91,0,0,0,.38.23.7.7,0,0,0,.32,0l0,.1-1.28.42L29.71,5.18Z"/><path class="cls-1" d="M32.76,1.88l2.18-.41,0,.1-.12,0a1,1,0,0,0-.33.11l-.1.16a1.28,1.28,0,0,0,.06.44l.39,2a1.89,1.89,0,0,0,.23.7.73.73,0,0,0,.35.24.86.86,0,0,0,.51,0A1,1,0,0,0,36.51,5a1,1,0,0,0,.29-.47,2.32,2.32,0,0,0-.08-.92L36.39,2a1.26,1.26,0,0,0-.13-.38l-.19-.13a1.15,1.15,0,0,0-.41,0V1.34l1.45-.26,0,.1L37,1.2a.59.59,0,0,0-.29.12.39.39,0,0,0-.12.24,1.15,1.15,0,0,0,0,.35L37,3.44a3.87,3.87,0,0,1,.12,1,1.15,1.15,0,0,1-.36.67,1.91,1.91,0,0,1-1,.45,2.2,2.2,0,0,1-.88,0,1.32,1.32,0,0,1-.68-.38,1.84,1.84,0,0,1-.32-.77l-.4-2a1.17,1.17,0,0,0-.13-.42L33.16,2a.86.86,0,0,0-.38,0l0-.1"/><path class="cls-1" d="M41.68,3.44,42.76.69l1.74,0v.1h-.14a.66.66,0,0,0-.3.07L43.94,1a1.07,1.07,0,0,0,0,.38L44,4.06a1.31,1.31,0,0,0,0,.4l.14.13a.63.63,0,0,0,.29,0h.14v.1l-2.24.07v-.1h.14a.73.73,0,0,0,.29-.07L43,4.48a1.89,1.89,0,0,0,0-.38l-.11-3L41.36,4.85h-.08L39.47,1.19l.11,2.89c0,.2,0,.33,0,.38a.43.43,0,0,0,.19.23.71.71,0,0,0,.45.09v.1l-1.48.06V4.83h0a1.17,1.17,0,0,0,.27,0l.18-.14a.44.44,0,0,0,.09-.23V4.1l-.1-2.59a1,1,0,0,0-.05-.39L39,1a.63.63,0,0,0-.29,0h-.13V.84L40.37.77l1.31,2.67"/><path class="cls-1" d="M52.07,1.74l-.36,1.63.08,0a.69.69,0,0,0,.64-.12,1.47,1.47,0,0,0,.38-.65l.12,0-.46,2.1-.13,0a1.59,1.59,0,0,0,0-.59.64.64,0,0,0-.22-.36,1.15,1.15,0,0,0-.44-.17l-.25,1.13a2.35,2.35,0,0,0-.07.41l.09.14a.49.49,0,0,0,.25.11l.25,0a1.57,1.57,0,0,0,1-.06,1.58,1.58,0,0,0,.69-.69l.11,0-.47,1.22L49.62,5.2l0-.1.14,0a.64.64,0,0,0,.31,0L50.25,5a1.38,1.38,0,0,0,.12-.36L51,2A2.35,2.35,0,0,0,51,1.66l-.08-.19a.61.61,0,0,0-.3-.15l-.14,0,0-.11L54,1.9l-.27,1.19-.11,0a1.33,1.33,0,0,0-.12-.68A.88.88,0,0,0,53.15,2a2.82,2.82,0,0,0-.64-.19l-.44-.09"/><path class="cls-1" d="M59.55,3.58l-.38,1-.11,0A2,2,0,0,0,59,4a.85.85,0,0,0-.23-.37,1,1,0,0,0-.38-.17l-.31-.11L57,6.35a1.72,1.72,0,0,0-.11.39l.09.18a.53.53,0,0,0,.25.14l.13.05,0,.09-2.13-.69,0-.1.13,0a.57.57,0,0,0,.3,0l.17-.1A1,1,0,0,0,56.06,6l1.08-3-.29-.1a1,1,0,0,0-.66,0,1.1,1.1,0,0,0-.56.55l-.12,0,.38-1.06,3.66,1.21"/><path class="cls-1" d="M65.2,9.46,65.42,8l-1.33.85,1.11.65m0,.25-1.28-.77-.38.25a.88.88,0,0,0-.26.24.28.28,0,0,0,0,.29,1.22,1.22,0,0,0,.32.28l-.07.08-1.21-.72.06-.09a.64.64,0,0,0,.43,0A2.43,2.43,0,0,0,63.41,9l3.11-2,.06,0L66,10.63a1.72,1.72,0,0,0,0,.7.51.51,0,0,0,.2.25l-.06.09-1.76-1.05.05-.09.07,0a.69.69,0,0,0,.33.12L65,10.6l0-.1s0-.1.06-.25Z"/><path class="cls-1" d="M70.6,10.13,69.4,11.5l.14.11a2.08,2.08,0,0,0,.55.35.61.61,0,0,0,.44,0,.93.93,0,0,0,.47-.32.94.94,0,0,0,.28-.66,1,1,0,0,0-.41-.63l-.27-.21m-1.35,1.53-.78.89a1,1,0,0,0-.25.35l0,.2a1.38,1.38,0,0,0,.28.29l-.07.08-1.69-1.35.07-.08a.86.86,0,0,0,.35.2h.2c.07,0,.17-.12.32-.29l1.81-2.06a1.11,1.11,0,0,0,.24-.35V9.34a1.18,1.18,0,0,0-.28-.29L69.53,9l1.53,1.22a4.36,4.36,0,0,1,.81.78,1.19,1.19,0,0,1,.2.66,1.08,1.08,0,0,1-.27.63,1,1,0,0,1-.77.37,1.33,1.33,0,0,1-.66-.16l-.15,1.7a1.44,1.44,0,0,0,0,.43.44.44,0,0,0,.16.26l-.07.1-1-.84.2-2.28Z"/><path class="cls-1" d="M76.44,15.22l-.85.76-.07-.08a1.48,1.48,0,0,0,.26-.53.72.72,0,0,0,0-.41.92.92,0,0,0-.24-.34l-.23-.22-2.43,2.16a1.3,1.3,0,0,0-.28.29V17l.15.24.09.09-.08.08-1.52-1.56.09-.07.09.1.24.16h.21a1.24,1.24,0,0,0,.31-.23l2.44-2.16-.21-.22a.88.88,0,0,0-.57-.32,1.32,1.32,0,0,0-.77.23L73,13.29l.84-.76,2.64,2.69"/><path class="cls-1" d="M75.25,20.35l-.08.06L73.82,18.7l.09-.05.09.1a.48.48,0,0,0,.22.19h.2a1.24,1.24,0,0,0,.35-.21L77,17.12a2,2,0,0,0,.32-.26l0-.2a.47.47,0,0,0-.12-.25l-.09-.11.09-.06,1.34,1.7-.08.06-.09-.1-.23-.19H78a1.38,1.38,0,0,0-.35.2l-2.27,1.63a2,2,0,0,0-.3.26l0,.2.13.25.08.11"/><path class="cls-1" d="M79.39,18.92l1.14,1.81-.09.06,0-.09a.83.83,0,0,0-.23-.27l-.19,0a1.39,1.39,0,0,0-.42.2l-1.81,1a2.31,2.31,0,0,0-.6.44.79.79,0,0,0-.13.39.91.91,0,0,0,.16.47,1,1,0,0,0,.44.41,1.07,1.07,0,0,0,.56.09,2.69,2.69,0,0,0,.89-.37l1.5-.86a1.1,1.1,0,0,0,.33-.25l.07-.21a1,1,0,0,0-.15-.37l.1-.06.76,1.22-.09,0,0-.07a.72.72,0,0,0-.22-.21.45.45,0,0,0-.28,0,1.11,1.11,0,0,0-.35.15l-1.39.8a4,4,0,0,1-1,.45,1.24,1.24,0,0,1-.78-.09,1.81,1.81,0,0,1-.78-.72,2.07,2.07,0,0,1-.32-.78,1.2,1.2,0,0,1,.15-.73,1.72,1.72,0,0,1,.64-.56l1.81-1a2.59,2.59,0,0,0,.38-.25l0-.2A.86.86,0,0,0,79.3,19l.09,0"/><path class="cls-1" d="M80.86,27.46l3.07,0L84.59,29l-.11,0,0-.12a.53.53,0,0,0-.17-.24l-.19-.06a1.22,1.22,0,0,0-.39.11l-2.63,1a1,1,0,0,0-.38.18l-.07.17a.49.49,0,0,0,0,.28l0,.12-.09,0-.85-2,.1,0,.06.12a.48.48,0,0,0,.17.25l.19.06a1.45,1.45,0,0,0,.39-.12l3-1.13-4.25-.07,0-.06,3-2.88L79.5,25.8a1.74,1.74,0,0,0-.35.16.36.36,0,0,0-.18.24.81.81,0,0,0,.07.43l-.1,0-.56-1.3.11,0,0,0a.52.52,0,0,0,.14.22l.19.12a.56.56,0,0,0,.26,0l.3-.11,2.52-1a1.47,1.47,0,0,0,.38-.18l.08-.18a.41.41,0,0,0-.06-.27l0-.13.1,0L83,25.37l-2.18,2.09"/><path class="cls-1" d="M86.68,38.68l-1.49.18,0-.12a1.57,1.57,0,0,0,.83-.6,1.2,1.2,0,0,0,.21-.85,1.17,1.17,0,0,0-.32-.67,1.34,1.34,0,0,0-.66-.39,2.79,2.79,0,0,0-1.09-.07,3.71,3.71,0,0,0-1,.27,1.3,1.3,0,0,0-.66.51,1.07,1.07,0,0,0-.14.78,1.38,1.38,0,0,0,.26.69,2.14,2.14,0,0,0,.7.59l-.37,0a2.16,2.16,0,0,1-.64-.64,2.58,2.58,0,0,1-.15-2,1.94,1.94,0,0,1,.68-.87,2.29,2.29,0,0,1,1.06-.4,2.26,2.26,0,0,1,1.2.17A2.15,2.15,0,0,1,86,36a2.11,2.11,0,0,1,.44,1.06,2.45,2.45,0,0,1-.07.92,1.08,1.08,0,0,0-.07.37l.09.16a.4.4,0,0,0,.24.06l0,.12"/><path class="cls-1" d="M86.39,41.8l-1.88,0v.17a1.72,1.72,0,0,0,.08.63.6.6,0,0,0,.28.33,1.12,1.12,0,0,0,.55.13,1,1,0,0,0,.73-.2,1,1,0,0,0,.25-.71V41.8m-2.1,0-1.22,0a1.9,1.9,0,0,0-.44,0l-.14.15a1,1,0,0,0-.07.38h-.1l0-2.1h.11a1.1,1.1,0,0,0,.05.39l.14.15a2,2,0,0,0,.44,0l2.81,0a1.44,1.44,0,0,0,.44,0l.14-.15a.94.94,0,0,0,.07-.38h.1l0,1.91a4.08,4.08,0,0,1-.14,1.08,1,1,0,0,1-.41.56,1.14,1.14,0,0,1-1.47-.13,1.35,1.35,0,0,1-.28-.59l-1.48.95a2.93,2.93,0,0,0-.35.27.5.5,0,0,0-.11.3h-.12l0-1.3,2-1.28Z"/><path class="cls-1" d="M86,48a.91.91,0,0,0-.47-.92,3.36,3.36,0,0,0-1.37-.42,2.81,2.81,0,0,0-1.66.15.82.82,0,0,0-.47.66.83.83,0,0,0,.07.53,1.24,1.24,0,0,0,.59.5,3.8,3.8,0,0,0,1.13.3,4.33,4.33,0,0,0,1.29,0,1.28,1.28,0,0,0,.64-.31A.88.88,0,0,0,86,48m.21,0a2,2,0,0,1-.83,1.49,2.29,2.29,0,0,1-1.67.39,2.44,2.44,0,0,1-1.36-.64,2,2,0,0,1-.57-1.8,2.13,2.13,0,0,1,1-1.58,2.51,2.51,0,0,1,1.54-.27,2.15,2.15,0,0,1,1.48.82A1.89,1.89,0,0,1,86.21,48"/><path class="cls-1" d="M82,53.16,83.59,53l-1.22-1L82,53.16m-.26,0,.44-1.38-.35-.29a.85.85,0,0,0-.3-.17.27.27,0,0,0-.3.06.85.85,0,0,0-.2.36l-.1,0,.41-1.3.11,0a.52.52,0,0,0,.07.39,2.44,2.44,0,0,0,.52.52l2.83,2.36,0,0L81,54.23a2.25,2.25,0,0,0-.72.16.43.43,0,0,0-.2.25l-.1,0,.6-1.9.11,0,0,.09a.75.75,0,0,0,0,.34l.13.1.12,0,.26,0Z"/><path class="cls-1" d="M82.22,60l-1-.45,0-.1a2.28,2.28,0,0,0,.61,0,.87.87,0,0,0,.4-.19.9.9,0,0,0,.22-.34l.14-.29-3-1.29-.39-.13-.19.07a.54.54,0,0,0-.18.23l-.06.12-.1,0,.91-2,.1.05,0,.12a.56.56,0,0,0-.06.29l.09.17a1.11,1.11,0,0,0,.35.18l3,1.29.13-.27a.82.82,0,0,0,.08-.61,1.16,1.16,0,0,0-.52-.59l0-.11,1.06.45L82.22,60"/><path class="cls-1" d="M76.9,61l-.1,0,1.1-1.87.08,0-.06.12a.57.57,0,0,0-.09.28l.07.17a1.28,1.28,0,0,0,.34.22l2.49,1.31a1.85,1.85,0,0,0,.37.17l.2,0a.6.6,0,0,0,.19-.22l.07-.12.1.06-1.09,1.86-.09,0,.07-.11a.58.58,0,0,0,.08-.29l-.07-.18a2,2,0,0,0-.34-.21l-2.48-1.31a1.37,1.37,0,0,0-.38-.16l-.2,0a.56.56,0,0,0-.19.21L76.9,61"/><path class="cls-1" d="M77.51,67.37l-1.22-.83.08-.1a1.64,1.64,0,0,0,1,.11,1.35,1.35,0,0,0,.76-.49,1.2,1.2,0,0,0,0-1.41,2.67,2.67,0,0,0-.74-.76,3.45,3.45,0,0,0-.94-.47,1.4,1.4,0,0,0-.85-.05,1.21,1.21,0,0,0-.67.47,1.41,1.41,0,0,0-.29.68,2.25,2.25,0,0,0,.08.89l-.31-.21a1.94,1.94,0,0,1,.4-1.69,2.52,2.52,0,0,1,1-.78A1.89,1.89,0,0,1,77,62.54a2.2,2.2,0,0,1,1.06.39,2.32,2.32,0,0,1,.77.9A2.2,2.2,0,0,1,79,65,2.22,2.22,0,0,1,78.52,66a2.4,2.4,0,0,1-.73.63,1.46,1.46,0,0,0-.3.23l-.06.17.15.21-.07.09"/><path class="cls-1" d="M72.68,68.35l1.51.51-.63-1.41-.88.9m-.24-.08,1-1-.17-.41a.77.77,0,0,0-.2-.29.3.3,0,0,0-.3-.07,1.23,1.23,0,0,0-.35.24l-.07-.07,1-1,.08.08a.55.55,0,0,0-.11.38,2.15,2.15,0,0,0,.23.69L75,70.08l0,0-3.63-1.21a2.47,2.47,0,0,0-.72-.16.49.49,0,0,0-.29.14l-.08-.08,1.42-1.44.08.06-.06.07a.75.75,0,0,0-.19.28l.06.15.1.07.25.09Z"/><path class="cls-1" d="M26.08,78.52l2.27-2,1.58.7-.05.1-.13,0a.76.76,0,0,0-.3-.07l-.18.08a1.45,1.45,0,0,0-.2.34l-1.2,2.45a1.42,1.42,0,0,0-.15.37l.07.19a.67.67,0,0,0,.24.17l.12,0,0,.1-2-.91.05-.09.13.05a.52.52,0,0,0,.3.07l.18-.08a1,1,0,0,0,.19-.34l1.36-2.75-3.15,2.72-.08,0,.13-4L23.9,78.19a2.62,2.62,0,0,0-.15.33.42.42,0,0,0,.05.31.79.79,0,0,0,.35.26l0,.09-1.33-.59,0-.1,0,0a.68.68,0,0,0,.27.07.59.59,0,0,0,.23,0l.18-.16s.07-.12.14-.28l1.16-2.36a1.67,1.67,0,0,0,.14-.37l-.07-.18a.53.53,0,0,0-.23-.17l-.13,0,.05-.1,1.59.71-.1,2.94"/><path class="cls-1" d="M31.29,82.17l1-3.06a1,1,0,0,1,.12-.29l.11-.07a.55.55,0,0,1,.26,0,1,1,0,0,1,.67.55,2.31,2.31,0,0,1-.09,1.49A2.68,2.68,0,0,1,32.71,82a1.09,1.09,0,0,1-.67.33,2,2,0,0,1-.75-.12M30.92,78l0,.1.14,0a.64.64,0,0,1,.25.13l.09.19a1.16,1.16,0,0,1-.09.38l-.82,2.58a1.84,1.84,0,0,1-.16.37l-.18.09a.6.6,0,0,1-.29,0l-.13,0,0,.1,1.83.54a3.09,3.09,0,0,0,1.25.15,1.75,1.75,0,0,0,1.06-.47,2.19,2.19,0,0,0,.63-1,2.09,2.09,0,0,0,.11-.8,1.94,1.94,0,0,0-.18-.69,1.54,1.54,0,0,0-.4-.51,2.65,2.65,0,0,0-.63-.42,3.21,3.21,0,0,0-.57-.2Z"/><path class="cls-1" d="M40.15,79.75v1.42H40a1.45,1.45,0,0,0-.52-.86,1.39,1.39,0,0,0-.86-.3,1.31,1.31,0,0,0-.74.22,1.37,1.37,0,0,0-.49.58,2.61,2.61,0,0,0-.2,1,3.13,3.13,0,0,0,.15,1,1.33,1.33,0,0,0,.45.69,1.35,1.35,0,0,0,.8.23,1.72,1.72,0,0,0,.75-.17,2.66,2.66,0,0,0,.71-.58v.35a2.2,2.2,0,0,1-1.67.69,2.7,2.7,0,0,1-1.22-.27A2,2,0,0,1,36.08,82a2.16,2.16,0,0,1,.32-1.12,2.23,2.23,0,0,1,.86-.81,2.42,2.42,0,0,1,1.17-.29,2.68,2.68,0,0,1,1,.19,1.53,1.53,0,0,0,.37.11l.17-.08a.33.33,0,0,0,.1-.22h.12"/><path class="cls-1" d="M56.47,81.05l.22,1.42L53,83.36l0-.11.14,0a.66.66,0,0,0,.28-.13l.07-.17a1.25,1.25,0,0,0-.06-.38l-.69-2.62a.9.9,0,0,0-.13-.38l-.16-.11a1,1,0,0,0-.3,0l-.14,0,0-.11,2.22-.52,0,.1L54,79a.56.56,0,0,0-.29.14l-.08.17a1.29,1.29,0,0,0,.06.38l.67,2.54a.92.92,0,0,0,.14.37l.17.1a2.39,2.39,0,0,0,.38-.06l.34-.09a1.24,1.24,0,0,0,.53-.24,1,1,0,0,0,.29-.44,3.28,3.28,0,0,0,.12-.78l.12,0"/><path class="cls-1" d="M59.75,78.9,61.55,80a2.85,2.85,0,0,0,.6.3.7.7,0,0,0,.32,0l.05.1-1.93.82,0-.1a.59.59,0,0,0,.26-.2v-.14l-.06-.09a2.9,2.9,0,0,0-.35-.22l-.95-.57-.27,1a1,1,0,0,0-.07.56l.14.11a.31.31,0,0,0,.25,0,1,1,0,0,0,.26-.08l0,.1-1.51.64-.05-.1a1,1,0,0,0,.34-.31,3,3,0,0,0,.3-.76l.35-1.24-1.65-1-.47-.27-.21-.06-.23,0,0-.1,2-.82,0,.09-.1,0a.47.47,0,0,0-.21.15V78l.07.1.33.21.82.48.18-.64a1.18,1.18,0,0,0,.08-.67l-.11-.12-.18,0a.75.75,0,0,0-.28.07l0-.1,1.44-.62,0,.1a1.18,1.18,0,0,0-.26.16.48.48,0,0,0-.14.23,4.57,4.57,0,0,0-.2.58l-.33,1.17"/><path class="cls-1" d="M63.57,75.56l0-.09-2,.93.05.1.13-.06a.52.52,0,0,1,.3-.07l.18.07a1.54,1.54,0,0,1,.2.33l1.25,2.44a1.61,1.61,0,0,1,.16.36l-.07.19a.53.53,0,0,1-.23.17l-.12.06,0,.1,2-.94,0-.1-.13.06a.59.59,0,0,1-.3.07l-.18-.07a1.16,1.16,0,0,1-.2-.34l-1.25-2.43a.92.92,0,0,1-.15-.37l.06-.18a.62.62,0,0,1,.23-.17l.12-.06"/><path class="cls-1" d="M45.6,80v1.42h-.11a1.54,1.54,0,0,0-.53-.85,1.35,1.35,0,0,0-.86-.31,1.26,1.26,0,0,0-.73.23,1.25,1.25,0,0,0-.5.57,2.61,2.61,0,0,0-.19,1,3.29,3.29,0,0,0,.14,1,1.36,1.36,0,0,0,.45.68,1.3,1.3,0,0,0,.81.23,1.72,1.72,0,0,0,.75-.17,2.31,2.31,0,0,0,.69-.58v.35a2.09,2.09,0,0,1-.74.52,2.16,2.16,0,0,1-.92.17,2.7,2.7,0,0,1-1.22-.27,1.92,1.92,0,0,1-.82-.75,2.09,2.09,0,0,1-.3-1,2.31,2.31,0,0,1,.33-1.12,2.39,2.39,0,0,1,2-1.1,2.59,2.59,0,0,1,.95.19,3,3,0,0,0,.38.11l.17-.08a.38.38,0,0,0,.11-.22h.11"/><path class="cls-1" d="M50.71,79.44l.32,1.4-.12,0a1.53,1.53,0,0,0-.7-.74A1.43,1.43,0,0,0,49.3,80a1.33,1.33,0,0,0-1,1,2.26,2.26,0,0,0,0,1,3.07,3.07,0,0,0,.35,1,1.39,1.39,0,0,0,.59.59,1.38,1.38,0,0,0,.84.06,1.57,1.57,0,0,0,.68-.31,2.4,2.4,0,0,0,.58-.71l.08.34a2.52,2.52,0,0,1-.62.67A2.63,2.63,0,0,1,50,84a2.77,2.77,0,0,1-1.25,0,1.94,1.94,0,0,1-1-.58,2.07,2.07,0,0,1-.51-1,2.1,2.1,0,0,1,.07-1.16,2.3,2.3,0,0,1,.66-1A2.76,2.76,0,0,1,49,79.78a2.91,2.91,0,0,1,1,0,1.31,1.31,0,0,0,.38,0l.16-.1a.31.31,0,0,0,0-.24l.12,0"/><path class="cls-1" d="M60,38.39a12.94,12.94,0,0,1-.18,4,14.93,14.93,0,0,0-2.51-2.63A3.09,3.09,0,0,0,55.9,39c-1.15-.15-1.73,0-1.88,1.19-.57.55-.69,0-.74-.11a3.73,3.73,0,0,1-.23-2.77l-.6-.4a10.65,10.65,0,0,1-7.08-.72c0-.11-.87-.18-1.25-.88.28-.38.78-.27,1.14-.46a2.07,2.07,0,0,1,.71-1c.23-.16.57,0,.82-.18s.23-.9.58-1c.84-.25,1.37-.5.92-1.43a8.07,8.07,0,0,1-2.87.58c.44-.72,1.79-.78,1.41-2-1-.14-2,.91-3.3.89-1.08-.17-2,.95-2.71,1.91-.52,1.18-1,1.29-.34,1.63A9.87,9.87,0,0,0,44,37.45c.37.77-.37,1.9-.51,2.52a28.41,28.41,0,0,1-2.32,2.76c-.8.61-1.39,2.25-2.71,1.51a11,11,0,0,1-3.86-3.91c-.25-.45-.75-.67-1.09-1a10.88,10.88,0,0,1-2.63-5.27,4.84,4.84,0,0,1,.47-5.69c.6-.78,1.54-.82,2.52-1.1.54-.15,1.08-.39,1.6-.53a8.49,8.49,0,0,0,2,.4c.35,0,.9-.44,1.34-.25.82.23,1.72,0,1.81.73a12.07,12.07,0,0,1,.72,3.06,1.47,1.47,0,0,0,1.39-1.39c-.39-.35-.55-2.29-1.12-3.38a2.5,2.5,0,0,0,1.84-2.14c.26-.26.47-.65.78-.7a6.06,6.06,0,0,1,4.43,1.15c3.65,1.4,3,2.33,6.3,3.4.91.3,1.82,1.58,3.34,2.7A14.88,14.88,0,0,1,60,32.89a9.23,9.23,0,0,1,0,5.5m.27,8.33c0,.09-.29,0-.43,0a4.35,4.35,0,0,0-2.09-2,6.73,6.73,0,0,0-1.57-1.08c-1.06-.5-1.25.63-2,1.15-.14.14-.37.64.38.49.37-.15.61-.37.88-.39a2.54,2.54,0,0,1,1.64.33A11.64,11.64,0,0,1,59.61,48a4.09,4.09,0,0,1-.44,2.54C58.88,52,58,54.71,57.73,55.84c-.85,1.74-1.73,4.9-2.94,5.89-.81.68-1.55,1.62-2.41,2.3a15.72,15.72,0,0,1-1.85,1.12c-.25.14-.94.28-.75-.26l.19-.72c.21-.22.42-.43.61-.66a6.33,6.33,0,0,0,1.3-2.29c.19-.64-.57-1.21-.87-1.06a9.25,9.25,0,0,1-3.71,1.45c-.51-.17-.89.19-1.36.22-1.68.44-2.46-.33-4.52-1.72-1.05-1.46-2-1.35-3.5-2.28a14,14,0,0,1-2.45-2.45,4,4,0,0,1-.87-1.8,7.9,7.9,0,0,0-1.06-1.35c-.64-.59-1.38-.21-1,.77.08.17.65,1.61.71,1.8a3.47,3.47,0,0,1,.36,1.48c0,.14.16.31.18.5,1.3,2,2.17,3.54,3.18,5a10.49,10.49,0,0,0,2.87,2.59c1.31.69,2.18,1.82,3.93,2.17,3.05.59.4,1.29-.13,1.43a12.07,12.07,0,0,1-3.37-.06,2.12,2.12,0,0,1-1.09-.25c-1.08,0-1.9-1-3.06-1.51a3.69,3.69,0,0,0-4.24.65c-.52.09-1-1.62-1-1.64a29.64,29.64,0,0,1-1.33-4.73c-.47-1.1-.91-1.93-1.34-2.87s-.89-2.27-1.31-3.46l-.56-1.93c-.31-1.31-1.46-6.57.69-6.9,1.56-.1,2.34.52,3.47.77a7,7,0,0,1,2.76,3.19,34.18,34.18,0,0,0,3.22,2.31,12.52,12.52,0,0,0,1.93.21c1.15.12,2.32.23,3.54.26s1.94.24,2.54.29c1.45-.19,2.68-.5,2.67-1.23,0-.52-1.19-.66-3.12-.66a5.28,5.28,0,0,1-2.44-.92c-1.85-.67-2.3-1.22-3.93-2.92l0-.26c0-.09.14-.15.47-.23a26.85,26.85,0,0,1,3.07-.24c2.61-.1,5,.61,7.44,1a3.65,3.65,0,0,0,2.27.41,5,5,0,0,0,2.39-1.22,2.82,2.82,0,0,1,1.11-2.71c.08-.26,0-1.25.12-1.82A1.93,1.93,0,0,1,56,40c1,.13,1.21,1.33,2.06,1.69a21.11,21.11,0,0,0,.53,2.16c.29.74,1,.67,1.43,1.8.21.45.37.88.21,1.09m-5.8,22.81c-1.63-.21-2.9-.06-4.41-.25-.2,0-.38-.43-.56-.5s.06-.14,0-.24c0-.44.48-.85.68-1.17a2.09,2.09,0,0,1,2.07-.81,4.72,4.72,0,0,0,2,1.3,2.63,2.63,0,0,1,1.48.7,5.06,5.06,0,0,1-1.31,1m7.74-35.17a17.43,17.43,0,0,0-.25-2.08c.62-2.12-3-2.69-3.75-4-.38-.39-.82-.71-1.2-1.07s-.87-1-1.28-1.46c-1-.77-1.78-1.32-2.7-2a55.28,55.28,0,0,1-6.56-2.06c-1.27-.23-3.18.07-4.1-.07-.17,0-.08-.35-.05-.63s-1,.06-.89-.26c.07-.65-.31-1.32-.17-1.86.18-.21.62-.24.56-.19.36,0,.54,1.06.78,1.06s.43.07.49-.21a6.44,6.44,0,0,0,0-1.39c1.22-1,.06-1.73.72-2.29,1-1.93-.35-2.05-.66-3.09-.55-.83-1.27-1.82-2.31-1.77-.52.18-1,.55-.52,1.53,1.82.94,3.46,2.82,2.43,4.83-.48.71-1.52.31-2.17.71-1.89.88-.64-1.39-2.07-1.56-1.25-1.7.46-2.71-.28-4.12l-.52-.78c-.2-.53-.74-.3-.92,0-.08,1-1.14,1.37-1.56,2,.06,1.17-.45,2.1-.2,3.33.79.57.17,2.32,1.3,2.45s.17,1.29.25,1.48a1.4,1.4,0,0,0-.35,1.21c-.57.62-1.76.89-1.85,2.14-1,1.56-2.66,1.4-3.81,2.75A9.52,9.52,0,0,0,29,29.77a8.38,8.38,0,0,0-.64,2.61,9.57,9.57,0,0,0,.51,4c0,.29,1,1.45,1.63,2.79a12.72,12.72,0,0,1,1,4.3c-1.56.33-2.52,0-3.88.09C27.12,43.47,25,44,25,45.28c-.5,1.71-.17,3.75-.66,5.45a18,18,0,0,0,1.27,4.5,7.51,7.51,0,0,1,.88,2.33c.47,3.1.32,6.5,1.05,9.55.27,1.24-.13,2.33.41,3.31.13.23.51.11.8.15a19.36,19.36,0,0,1,2.94-.73c.75-.54.32-2,1-2.47a3,3,0,0,1,3.37.12c.8.36.54,1.18.31,1.88A3.16,3.16,0,0,1,33,71c-.39-.06-1-.23-1.31,0-.06.4.33.8.64,1a6.66,6.66,0,0,0,2.09,0,9.26,9.26,0,0,0,2-.88,14.48,14.48,0,0,1,3.58-.88c1.56-.08,3.86-.17,6.1-.3,1,.2,3.19,0,4.08.44a35.25,35.25,0,0,1,4.3.59c.42.07.64-.31,1.05-.54a5.14,5.14,0,0,1,2.39-.7,46.81,46.81,0,0,1,0-9.34c0-1.44.87-2.31.94-3.56a35.64,35.64,0,0,0,1.74-4,18.16,18.16,0,0,1,.9-5.15,9.5,9.5,0,0,0-.07-3c-.19-.92-.83-1.51-.76-2.29a27.81,27.81,0,0,1,1.06-5.07c.27-1,.08-1.91.37-2.92"/><path class="cls-1" d="M58.76,51c.09,1-.47,1.41-1,2.2-1.3,1.41-2.4,3.31-4.19,4.08-1.43.85-2,1-3,1.68a5.11,5.11,0,0,1-1.43.23,3.22,3.22,0,0,1-2.31-.9c-.3-.22-.79-.59-1-.73A32.52,32.52,0,0,1,43,55.41c-.22-.3-2-1.67.38-1.45,1.15.38,2.56.73,3.38,1a14.15,14.15,0,0,0,3.45.26,5.81,5.81,0,0,0,2-.09,6.07,6.07,0,0,0,1.6-.82c1.72-.83,2.85-2.44,4.52-3.54.23-.08.38.12.43.29"/></svg>